<?xml version="1.0" encoding="UTF-8" standalone="no"?>
<svg
   xmlns:dc="http://purl.org/dc/elements/1.1/"
   xmlns:cc="http://creativecommons.org/ns#"
   xmlns:rdf="http://www.w3.org/1999/02/22-rdf-syntax-ns#"
   xmlns:svg="http://www.w3.org/2000/svg"
   xmlns="http://www.w3.org/2000/svg"
   viewBox="0 0 288.10001 356.375"
   height="356.375"
   width="288.10001"
   xml:space="preserve"
   version="1.1"
   id="svg21451"><metadata
     id="metadata21457"><rdf:RDF><cc:Work
         rdf:about=""><dc:format>image/svg+xml</dc:format><dc:type
           rdf:resource="http://purl.org/dc/dcmitype/StillImage" /><dc:title></dc:title></cc:Work></rdf:RDF></metadata><defs
     id="defs21455"><clipPath
       id="clipPath21469"
       clipPathUnits="userSpaceOnUse"><path
         id="path21471"
         d="m 446.75,2597 c 23,-100 92,-221 72,-322 39,-68 71,-168 120,-244 -156,-9 -303,-3 -465,-5 -23,18 -79,1 -77,33 50,22 36,84 86,106 33,182 160,328 197,523 37,-20 45,-61 67,-91" /></clipPath><linearGradient
       id="linearGradient21473"
       spreadMethod="pad"
       gradientTransform="matrix(-530,0,0,706,617.25,2002)"
       gradientUnits="userSpaceOnUse"
       y2="0"
       x2="1"
       y1="0"
       x1="0"><stop
         id="stop21475"
         offset="0"
         style="stop-opacity:1;stop-color:#77264e" /><stop
         id="stop21477"
         offset="0.18112306"
         style="stop-opacity:1;stop-color:#c2a495" /><stop
         id="stop21479"
         offset="0.196629"
         style="stop-opacity:1;stop-color:#c2a495" /><stop
         id="stop21481"
         offset="0.348314"
         style="stop-opacity:1;stop-color:#d9c6bd" /><stop
         id="stop21483"
         offset="0.483146"
         style="stop-opacity:1;stop-color:#c2a495" /><stop
         id="stop21485"
         offset="1"
         style="stop-opacity:1;stop-color:#77264e" /></linearGradient><clipPath
       id="clipPath21495"
       clipPathUnits="userSpaceOnUse"><path
         id="path21497"
         d="m 1690.7,1932.28 c 7.34,14.65 13.85,29.81 19.05,45.72 115,-17 230,-29 345,-24 36,-29 80,-51 130,-48 19,62 -62,81 -67,139 0,106 -47,211 -43,317 -16,65 -29,140 -72,201 -126,-184 -209,-411 -336,-614 l 23.95,-16.72" /></clipPath><linearGradient
       id="linearGradient21499"
       spreadMethod="pad"
       gradientTransform="matrix(-419.998,4.999,8.312,698.335,2144.85,1882.69)"
       gradientUnits="userSpaceOnUse"
       y2="0"
       x2="1"
       y1="0"
       x1="0"><stop
         id="stop21501"
         offset="0"
         style="stop-opacity:1;stop-color:#77264e" /><stop
         id="stop21503"
         offset="0.18112306"
         style="stop-opacity:1;stop-color:#c2a495" /><stop
         id="stop21505"
         offset="0.196629"
         style="stop-opacity:1;stop-color:#c2a495" /><stop
         id="stop21507"
         offset="0.348314"
         style="stop-opacity:1;stop-color:#d9c6bd" /><stop
         id="stop21509"
         offset="0.483146"
         style="stop-opacity:1;stop-color:#c2a495" /><stop
         id="stop21511"
         offset="1"
         style="stop-opacity:1;stop-color:#77264e" /></linearGradient><clipPath
       id="clipPath21519"
       clipPathUnits="userSpaceOnUse"><path
         id="path21521"
         d="m 2023.89,1317.87 c 4.8,28.15 8.85,56.21 11.86,84.13 81,138 77,283 149,413 -132,75 -307,26 -461,96 -60,-86 -99,-170 -115,-264 17,-22 54,-16 77,-34 26,-2 50,2 72,14 32,11 53,-16 72,-28 15,-72 -34,-144 -48,-216 55,-30 80,56 139,19 6,-29 64,-54 29,-82 l 74.14,-2.13" /></clipPath><linearGradient
       id="linearGradient21523"
       spreadMethod="pad"
       gradientTransform="matrix(30,170.001,569.818,-100.554,1600.24,1715.53)"
       gradientUnits="userSpaceOnUse"
       y2="0"
       x2="1"
       y1="0"
       x1="0"><stop
         id="stop21525"
         offset="0"
         style="stop-opacity:1;stop-color:#c2bd95" /><stop
         id="stop21527"
         offset="0.19669036"
         style="stop-opacity:1;stop-color:#c2bd95" /><stop
         id="stop21529"
         offset="1"
         style="stop-opacity:1;stop-color:#796f19" /></linearGradient><clipPath
       id="clipPath21537"
       clipPathUnits="userSpaceOnUse"><path
         id="path21539"
         d="m 692.02,1587.77 c -56.879,10.19 -113.321,16.59 -168.27,-8.77 -115,-74 -98,-210 -173,-297 l -144,-192 c -43,270 -15,539 -24,806 77,34 158,-24 236,-14 90.719,4.35 170.629,48.08 251.48,73.38 l 21.79,-367.61" /></clipPath><linearGradient
       id="linearGradient21541"
       spreadMethod="pad"
       gradientTransform="matrix(-29.995,225,615.274,82.023,101.239,1679.87)"
       gradientUnits="userSpaceOnUse"
       y2="0"
       x2="1"
       y1="0"
       x1="0"><stop
         id="stop21543"
         offset="0"
         style="stop-opacity:1;stop-color:#c2bd95" /><stop
         id="stop21545"
         offset="0.92114111"
         style="stop-opacity:1;stop-color:#796f19" /><stop
         id="stop21547"
         offset="1"
         style="stop-opacity:1;stop-color:#796f19" /></linearGradient><clipPath
       id="clipPath21555"
       clipPathUnits="userSpaceOnUse"><path
         id="path21557"
         d="m 350.75,1282 c 8,-16 5,-35 20,-48 76,63 91,199 182,249 42,5 71,10 110,20 86,-51 35,-159 63,-236 55,8 119,-19 168,10 144,-20 91,149 144,221 42,44 113,45 168,29 30,0 54,-24 43,-58 -28,-53 -4,-106 -24,-158 48,-46 119,-12 182,-29 161,-1 72,156 125,249 73,68 167,12 255,29 7,-81 -72,-163 -44,-254 76,8 137,11 207,14 l 74.14,-2.13 C 1995.16,1149.43 1939.6,977.941 1920.75,816 c 14,-81 -14,-181 43,-245 66,-86 67,-208 130,-302 -222,-47 -444,-90 -643,-168 52,139 73,263 43,394 -19,37 -3,88 -15,129 -67,93 -85,238 -182,283 -134,53 -289,41 -422,0 -74,-46 -112,-106 -173,-144 -57,-139 -65,-279 -120,-398 -4,-38 -57,-79 -10,-115 -5,-17 -21,-22 -38,-19 -157,49 -322,108 -471,110 -40,88 88,154 44,240 25,14 6,74 52,82 -2,142 62,292 48,427 l 144,192" /></clipPath><linearGradient
       id="linearGradient21559"
       spreadMethod="pad"
       gradientTransform="matrix(35.005,-1530,-2106.26,-48.189,2084.39,1561.01)"
       gradientUnits="userSpaceOnUse"
       y2="0"
       x2="1"
       y1="0"
       x1="0"><stop
         id="stop21561"
         offset="0"
         style="stop-opacity:1;stop-color:#e1d3cb" /><stop
         id="stop21563"
         offset="0.08427"
         style="stop-opacity:1;stop-color:#c2a495" /><stop
         id="stop21565"
         offset="0.21142918"
         style="stop-opacity:1;stop-color:#c2bd95" /><stop
         id="stop21567"
         offset="0.269663"
         style="stop-opacity:1;stop-color:#c2bd95" /><stop
         id="stop21569"
         offset="0.48036841"
         style="stop-opacity:1;stop-color:#c2bd95" /><stop
         id="stop21571"
         offset="1"
         style="stop-opacity:1;stop-color:#9c9454" /></linearGradient></defs><g
     transform="matrix(1.25,0,0,-1.25,0,356.375)"
     id="g21459"><g
       transform="scale(0.1,0.1)"
       id="g21461"><path
         id="path21463"
         style="fill:#000000;fill-opacity:1;fill-rule:nonzero;stroke:none"
         d="m 2078.75,2755 c -1,-94 -13,-192 10,-288 72,-128 24,-258 110,-388 57,-69 42,-170 106,-231 -10,-66 -76,-7 -91,-67 -78,-270 -171,-584 -216,-878 -5,-68 -10,-147 -15,-202 69,-118 92,-280 173,-398 l 24,0 c 12,-29 -1,-58 -24,-72 -195,-101 -434,-152 -629,-231 -33,5 -50,27 -72,48 -30,6 -34,-51 -72,-24 -49,118 -226,105 -240,226 52,20 35,86 77,120 45,98 49,224 39,336 -32,21 -34,72 -72,86 -48,-5 -47,57 -106,53 -73,11 -131,-18 -197,-24 -67,-54 -159,-82 -197,-178 -15,-28 -12,-62 -28,-86 33,-124 2,-269 52,-394 -52,-39 -121,-39 -182,-57 -173,60 -346,74 -518,173 -16,18 -11,50 -5,72 53,88 99,205 110,307 34,150 59,314 58,470 -48,175 -9,342 -34,523 -31,23 -67,65 -38,111 33,51 7,110 29,153 -52,22 -112,56 -120,106 88,218 186,397 268,619 -20,39 39,77 5,115 53,16 70,87 115,82 114,-229 152,-463 264,-682 14,-122 140,-68 159,-187 -139,30 -257,-79 -403,-86 -78,-10 -159,48 -236,14 9,-267 -19,-536 24,-806 14,-135 -50,-285 -48,-427 -46,-8 -27,-68 -52,-82 44,-86 -84,-152 -44,-240 149,-2 314,-61 471,-110 17,-3 33,2 38,19 -47,36 6,77 10,115 55,119 63,259 120,398 61,38 99,98 173,144 133,41 288,53 422,0 97,-45 115,-190 182,-283 12,-41 -4,-92 15,-129 30,-131 9,-255 -43,-394 199,78 421,121 643,168 -63,94 -64,216 -130,302 -57,64 -29,164 -43,245 22,189 94,391 115,586 81,138 77,283 149,413 -132,75 -307,26 -461,96 -60,-86 -99,-170 -115,-264 17,-22 54,-16 77,-34 26,-2 50,2 72,14 32,11 53,-16 72,-28 15,-72 -34,-144 -48,-216 55,-30 80,56 139,19 6,-29 64,-54 29,-82 -70,-3 -131,-6 -207,-14 -28,91 51,173 44,254 -88,-17 -182,39 -255,-29 -53,-93 36,-250 -125,-249 -63,17 -134,-17 -182,29 20,52 -4,105 24,158 11,34 -13,58 -43,58 -55,16 -126,15 -168,-29 -53,-72 0,-241 -144,-221 -49,-29 -113,-2 -168,-10 -28,77 23,185 -63,236 -39,-10 -68,-15 -110,-20 -91,-50 -106,-186 -182,-249 -15,13 -12,32 -20,48 75,87 58,223 173,297 78,36 159,8 240,-4 11,-15 16,-41 34,-44 6,-63 11,-121 -5,-182 46,-44 90,14 144,-5 64,61 16,144 62,226 36,54 102,-6 144,33 53,-7 120,0 149,-43 3,-67 -31,-150 -29,-225 60,20 146,-26 188,38 18,59 43,132 33,197 24,36 79,18 106,57 -34,10 -17,54 -15,77 16,102 102,173 135,274 115,-17 230,-29 345,-24 36,-29 80,-51 130,-48 19,62 -62,81 -67,139 0,106 -47,211 -43,317 -16,65 -29,140 -72,201 -126,-184 -209,-411 -336,-614 -16,0 -28,17 -34,29 50,92 125,197 130,297 70,44 99,146 153,216 36,117 93,243 135,360 19,-33 14,-60 28,-96" /><g
         id="g21465"><g
           clip-path="url(#clipPath21469)"
           id="g21467"><path
             id="path21487"
             style="fill:url(#linearGradient21473);fill-opacity:1;fill-rule:nonzero;stroke:none"
             d="m 446.75,2597 c 23,-100 92,-221 72,-322 39,-68 71,-168 120,-244 -156,-9 -303,-3 -465,-5 -23,18 -79,1 -77,33 50,22 36,84 86,106 33,182 160,328 197,523 37,-20 45,-61 67,-91" /></g></g><path
         id="path21489"
         style="fill:#796f19;fill-opacity:1;fill-rule:nonzero;stroke:none"
         d="m 1435.75,456 c 39,-104 15,-229 -33,-321 -20,70 -114,64 -111,148 -54,74 37,141 34,221 43,-1 78,-21 110,-48" /><g
         id="g21491"><g
           clip-path="url(#clipPath21495)"
           id="g21493"><path
             id="path21513"
             style="fill:url(#linearGradient21499);fill-opacity:1;fill-rule:nonzero;stroke:none"
             d="m 1690.7,1932.28 c 7.34,14.65 13.85,29.81 19.05,45.72 115,-17 230,-29 345,-24 36,-29 80,-51 130,-48 19,62 -62,81 -67,139 0,106 -47,211 -43,317 -16,65 -29,140 -72,201 -126,-184 -209,-411 -336,-614 l 23.95,-16.72" /></g></g><g
         id="g21515"><g
           clip-path="url(#clipPath21519)"
           id="g21517"><path
             id="path21531"
             style="fill:url(#linearGradient21523);fill-opacity:1;fill-rule:nonzero;stroke:none"
             d="m 2023.89,1317.87 c 4.8,28.15 8.85,56.21 11.86,84.13 81,138 77,283 149,413 -132,75 -307,26 -461,96 -60,-86 -99,-170 -115,-264 17,-22 54,-16 77,-34 26,-2 50,2 72,14 32,11 53,-16 72,-28 15,-72 -34,-144 -48,-216 55,-30 80,56 139,19 6,-29 64,-54 29,-82 l 74.14,-2.13" /></g></g><g
         id="g21533"><g
           clip-path="url(#clipPath21537)"
           id="g21535"><path
             id="path21549"
             style="fill:url(#linearGradient21541);fill-opacity:1;fill-rule:nonzero;stroke:none"
             d="m 692.02,1587.77 c -56.879,10.19 -113.321,16.59 -168.27,-8.77 -115,-74 -98,-210 -173,-297 l -144,-192 c -43,270 -15,539 -24,806 77,34 158,-24 236,-14 90.719,4.35 170.629,48.08 251.48,73.38 l 21.79,-367.61" /></g></g><g
         id="g21551"><g
           clip-path="url(#clipPath21555)"
           id="g21553"><path
             id="path21573"
             style="fill:url(#linearGradient21559);fill-opacity:1;fill-rule:nonzero;stroke:none"
             d="m 350.75,1282 c 8,-16 5,-35 20,-48 76,63 91,199 182,249 42,5 71,10 110,20 86,-51 35,-159 63,-236 55,8 119,-19 168,10 144,-20 91,149 144,221 42,44 113,45 168,29 30,0 54,-24 43,-58 -28,-53 -4,-106 -24,-158 48,-46 119,-12 182,-29 161,-1 72,156 125,249 73,68 167,12 255,29 7,-81 -72,-163 -44,-254 76,8 137,11 207,14 l 74.14,-2.13 C 1995.16,1149.43 1939.6,977.941 1920.75,816 c 14,-81 -14,-181 43,-245 66,-86 67,-208 130,-302 -222,-47 -444,-90 -643,-168 52,139 73,263 43,394 -19,37 -3,88 -15,129 -67,93 -85,238 -182,283 -134,53 -289,41 -422,0 -74,-46 -112,-106 -173,-144 -57,-139 -65,-279 -120,-398 -4,-38 -57,-79 -10,-115 -5,-17 -21,-22 -38,-19 -157,49 -322,108 -471,110 -40,88 88,154 44,240 25,14 6,74 52,82 -2,142 62,292 48,427 l 144,192" /></g></g></g></g></svg>